<svg width="99" height="99" viewBox="0 0 99 99" fill="none" xmlns="http://www.w3.org/2000/svg">
<g filter="url(#filter0_d_21_10296)">
<path d="M4.86719 40.4672C4.86719 28.006 4.86719 21.7754 7.29229 17.0159C9.42548 12.8293 12.8293 9.42548 17.0159 7.29229C21.7754 4.86719 28.006 4.86719 40.4672 4.86719H58.2672C70.7284 4.86719 76.9589 4.86719 81.7185 7.29229C85.9051 9.42548 89.3089 12.8293 91.4421 17.0159C93.8672 21.7754 93.8672 28.006 93.8672 40.4672V58.2672C93.8672 70.7284 93.8672 76.9589 91.4421 81.7185C89.3089 85.9051 85.9051 89.3089 81.7185 91.4421C76.9589 93.8672 70.7284 93.8672 58.2672 93.8672H40.4672C28.006 93.8672 21.7754 93.8672 17.0159 91.4421C12.8293 89.3089 9.42548 85.9051 7.29229 81.7185C4.86719 76.9589 4.86719 70.7284 4.86719 58.2672V40.4672Z" fill="black" shape-rendering="crispEdges"/>
<g clip-path="url(#clip0_21_10296)">
<path d="M32.2964 31.82C39.9887 24.14 51.3182 22.2036 60.7808 26.0944C62.8742 26.8713 64.6982 27.9776 66.1216 29.0055L58.2203 32.651C50.8631 29.5671 42.4346 31.6653 37.2906 36.8053C30.4431 43.6417 28.9744 55.4177 36.7066 63.2067L37.0757 63.5807L14.8179 83.4479C16.2296 81.5055 17.9825 79.6703 19.7291 77.8356C24.6579 72.6596 29.5507 67.5317 26.566 60.2819C22.5703 50.5816 24.8973 39.2132 32.2964 31.82ZM84.3961 17.0104C77.0688 27.093 73.4917 32.0241 76.3629 44.36L76.3443 44.3415C78.3242 52.7387 76.2067 62.051 69.3697 68.8825C60.7502 77.5006 46.9571 79.4193 35.5982 71.6618L43.5181 67.9977C50.7675 70.8424 58.6988 69.5934 64.399 63.8981C70.0995 58.2022 71.3803 49.9057 68.5152 43.0026C67.9707 41.6937 66.3374 41.3651 65.1949 42.2077L41.8853 59.403L75.274 25.8913V25.9215L84.9166 16.2868C84.7431 16.5318 84.5693 16.7713 84.3961 17.0104Z" fill="white"/>
</g>
</g>
<defs>
<filter id="filter0_d_21_10296" x="0" y="0" width="98.7344" height="98.7344" filterUnits="userSpaceOnUse" color-interpolation-filters="sRGB">
<feFlood flood-opacity="0" result="BackgroundImageFix"/>
<feColorMatrix in="SourceAlpha" type="matrix" values="0 0 0 0 0 0 0 0 0 0 0 0 0 0 0 0 0 0 127 0" result="hardAlpha"/>
<feOffset/>
<feGaussianBlur stdDeviation="2.43359"/>
<feComposite in2="hardAlpha" operator="out"/>
<feColorMatrix type="matrix" values="0 0 0 0 0 0 0 0 0 0 0 0 0 0 0 0 0 0 0.25 0"/>
<feBlend mode="normal" in2="BackgroundImageFix" result="effect1_dropShadow_21_10296"/>
<feBlend mode="normal" in="SourceGraphic" in2="effect1_dropShadow_21_10296" result="shape"/>
</filter>
<clipPath id="clip0_21_10296">
<rect width="70.9219" height="70.9219" fill="white" transform="translate(14.4062 14.4062)"/>
</clipPath>
</defs>
</svg>
