<svg width="111" height="111" viewBox="0 0 111 111" fill="none" xmlns="http://www.w3.org/2000/svg">
<g filter="url(#filter0_d_21_10313)">
<rect x="5.44641" y="5.44647" width="99.5922" height="99.5922" rx="24.898" fill="#202222"/>
<path d="M74.2616 61.0177L55.3888 43.6636V67.7265L74.2616 84.5547V61.0177Z" stroke="#21B8CD" stroke-width="2.93405"/>
<path d="M55.3888 43.6636L74.2616 61.0176V68.8273H82.1253V43.6636H55.3888Z" stroke="#21B8CD" stroke-width="2.93405"/>
<path d="M36.5158 61.0177L55.3886 43.6636V67.7265L36.5158 84.5547V61.0177Z" stroke="#21B8CD" stroke-width="2.93405"/>
<path d="M28.7673 43.6636V68.8274H36.5116V61.0177L55.3888 43.6636H28.7673Z" stroke="#21B8CD" stroke-width="2.93405"/>
<path d="M55.3888 43.6634L74.2616 26.0597V43.6634H55.3888Z" stroke="#21B8CD" stroke-width="2.93405"/>
<path d="M55.3886 43.6634L36.5157 26.0597V43.6634H55.3886Z" stroke="#21B8CD" stroke-width="2.93405"/>
<path d="M55.3888 23.2054V87.6875" stroke="#21B8CD" stroke-width="2.93405"/>
</g>
<defs>
<filter id="filter0_d_21_10313" x="-3.57628e-05" y="2.52724e-05" width="110.485" height="110.485" filterUnits="userSpaceOnUse" color-interpolation-filters="sRGB">
<feFlood flood-opacity="0" result="BackgroundImageFix"/>
<feColorMatrix in="SourceAlpha" type="matrix" values="0 0 0 0 0 0 0 0 0 0 0 0 0 0 0 0 0 0 127 0" result="hardAlpha"/>
<feOffset/>
<feGaussianBlur stdDeviation="2.72322"/>
<feComposite in2="hardAlpha" operator="out"/>
<feColorMatrix type="matrix" values="0 0 0 0 0 0 0 0 0 0 0 0 0 0 0 0 0 0 0.25 0"/>
<feBlend mode="normal" in2="BackgroundImageFix" result="effect1_dropShadow_21_10313"/>
<feBlend mode="normal" in="SourceGraphic" in2="effect1_dropShadow_21_10313" result="shape"/>
</filter>
</defs>
</svg>
